<svg width="60" height="60" viewBox="0 0 60 60" fill="none" xmlns="http://www.w3.org/2000/svg">
    <g clip-path="url(#clip0_0_1575)">
        <path d="M30 4.875C16.2 4.875 5 16.075 5 29.875C5 43.675 16.2 54.875 30 54.875H42.5V49.875H30C19.15 49.875 10 40.725 10 29.875C10 19.025 19.15 9.875 30 9.875C40.85 9.875 50 19.025 50 29.875V33.45C50 35.425 48.225 37.375 46.25 37.375C44.275 37.375 42.5 35.425 42.5 33.45V29.875C42.5 22.975 36.9 17.375 30 17.375C23.1 17.375 17.5 22.975 17.5 29.875C17.5 36.775 23.1 42.375 30 42.375C33.45 42.375 36.6 40.975 38.85 38.7C40.475 40.925 43.275 42.375 46.25 42.375C51.175 42.375 55 38.375 55 33.45V29.875C55 16.075 43.8 4.875 30 4.875ZM30 37.375C25.85 37.375 22.5 34.025 22.5 29.875C22.5 25.725 25.85 22.375 30 22.375C34.15 22.375 37.5 25.725 37.5 29.875C37.5 34.025 34.15 37.375 30 37.375Z"
              fill="#323232"/>
    </g>
    <defs>
        <clipPath id="clip0_0_1575">
            <rect width="60" height="60" fill="white"/>
        </clipPath>
    </defs>
</svg>
