<svg width="46" height="41" viewBox="0 0 46 41" fill="none" xmlns="http://www.w3.org/2000/svg">
<path d="M20.2188 6.83333H12.5312C7.09537 6.83333 4.37742 6.83333 2.68871 8.54885C1 10.2644 1 13.0255 1 18.5476V22.4524C1 27.9745 1 30.7356 2.68871 32.4512C4.37742 34.1667 7.09537 34.1667 12.5312 34.1667H20.2188C25.6546 34.1667 28.3726 34.1667 30.0613 32.4512C31.75 30.7356 31.75 27.9745 31.75 22.4524V18.5476C31.75 13.0255 31.75 10.2644 30.0613 8.54885C28.3726 6.83333 25.6546 6.83333 20.2188 6.83333Z" stroke="#DAB24A" stroke-width="2"/>
<path d="M7.8335 13.6667H12.9585" stroke="#DAB24A" stroke-width="2" stroke-linecap="round"/>
<path d="M21.5 25.3333V22.5C21.5 21.5572 21.5 21.0858 21.7929 20.7929C22.0858 20.5 22.5572 20.5 23.5 20.5H29.75C30.6928 20.5 31.1642 20.5 31.4571 20.7929C31.75 21.0858 31.75 21.5572 31.75 22.5V25.3333C31.75 26.2761 31.75 26.7475 31.4571 27.0404C31.1642 27.3333 30.6928 27.3333 29.75 27.3333H23.5C22.5572 27.3333 22.0858 27.3333 21.7929 27.0404C21.5 26.7475 21.5 26.2761 21.5 25.3333Z" stroke="#DAB24A" stroke-width="2"/>
</svg>
