<svg width="49" height="39" viewBox="0 0 49 39" fill="none" xmlns="http://www.w3.org/2000/svg">
<path d="M29.46 11.2116C29.46 12.5292 29.9999 16.2645 29.9999 16.2645C29.9999 16.2645 30.1905 17.4773 32.4999 18.2645C41.8195 19.4527 46.5333 20.0286 47.9999 20.7645C52.7704 23.1431 29.4999 23.6062 29.4999 27.7645L29.4999 37.7645L29.4999 38.7645L21.4999 38.7645L21.4999 33.7645C18.6777 37.4635 16.525 38.6176 11.4999 38.7645C3.00276 38.6191 1.2092 35.0504 0.499871 25.7645L3.99987 25.7645L5.99987 25.7645L7.99988 25.7645C8.10102 29.8543 11.3979 31.7205 15.039 31.7205C16.8764 31.7205 18.2671 31.2072 19.2111 30.1804C20.155 29.1537 20.627 27.4852 20.627 25.1751C20.627 25.1751 20.7478 32.3642 20.6363 20.0194C20.2628 16.9743 20.5848 13.5137 20.5848 11.2629C20.5848 7.99445 21.7985 5.42761 24.2259 3.56237C26.6533 1.69713 33.9999 -1.73552 48.4999 1.76442L47.9999 8.26442C46.5333 8.26442 35.4999 4.26448 30.7495 8.4907C29.8898 9.14097 29.46 10.0479 29.46 11.2116Z" fill="url(#paint0_linear_19_1973)"/>
<defs>
<linearGradient id="paint0_linear_19_1973" x1="24.5704" y1="38.651" x2="46.4999" y2="-20.7355" gradientUnits="userSpaceOnUse">
<stop stop-color="#D4AF37"/>
<stop offset="1" stop-color="#FFC300" stop-opacity="0"/>
</linearGradient>
</defs>
</svg>
