<svg width="109" height="87" viewBox="0 0 109 87" fill="none" xmlns="http://www.w3.org/2000/svg">
<path d="M65.0578 24.8682C65.0578 27.8282 66.2707 36.2192 66.2707 36.2192C66.2707 36.2192 66.6988 38.9438 71.8868 40.7121C92.8228 43.3814 103.412 44.6752 106.707 46.3282C117.423 51.6716 65.1475 52.7121 65.1475 62.0534L65.1475 84.5178L65.1475 86.7643L47.1759 86.7643L47.1759 75.5321C40.8362 83.8417 36.0002 86.4341 24.7116 86.7643C5.62329 86.4375 1.59416 78.4208 0.000696828 57.5605L7.86324 57.5605L12.3561 57.5605L16.849 57.5605C17.0762 66.7481 24.4824 70.9403 32.6619 70.9404C36.7895 70.9404 39.9136 69.7871 42.0342 67.4806C44.1549 65.1741 45.2152 61.426 45.2152 56.2364C45.2152 56.2364 45.4864 72.3863 45.236 44.6544C44.3969 37.8139 45.1203 30.0398 45.1203 24.9835C45.1203 17.6411 47.8468 11.8749 53.2998 7.68474C58.7528 3.49459 75.2564 -4.21665 107.83 3.64574L106.707 18.2476C103.412 18.2476 78.6261 9.26198 67.9547 18.756C66.0235 20.2167 65.0578 22.2541 65.0578 24.8682Z" fill="url(#paint0_linear_45_637)"/>
<defs>
<linearGradient id="paint0_linear_45_637" x1="54.0738" y1="86.5093" x2="103.337" y2="-46.8989" gradientUnits="userSpaceOnUse">
<stop stop-color="#D4AF37"/>
<stop offset="1" stop-color="#FFC300" stop-opacity="0"/>
</linearGradient>
</defs>
</svg>
