<svg width="49" height="39" viewBox="0 0 49 39" fill="none" xmlns="http://www.w3.org/2000/svg">
<path d="M29.4602 11.2114C29.4602 12.5291 30.0001 16.2643 30.0001 16.2643C30.0001 16.2643 30.1907 17.4772 32.5001 18.2643C41.8198 19.4526 46.5336 20.0285 48.0001 20.7643C52.7706 23.1429 29.5001 23.6061 29.5001 27.7644L29.5001 37.7644L29.5001 38.7644L21.5001 38.7644L21.5001 33.7644C18.678 37.4634 16.5252 38.6174 11.5001 38.7644C3.00301 38.6189 1.20945 35.0503 0.500116 25.7644L4.00012 25.7644L6.00012 25.7644L8.00012 25.7644C8.10126 29.8542 11.3981 31.7204 15.0392 31.7204C16.8766 31.7204 18.2673 31.207 19.2113 30.1803C20.1553 29.1536 20.6273 27.4851 20.6273 25.175C20.6273 25.175 20.748 32.3641 20.6366 20.0193C20.263 16.9742 20.585 13.5136 20.585 11.2628C20.585 7.99432 21.7987 5.42748 24.2261 3.56225C26.6535 1.69701 34.0001 -1.73565 48.5001 1.76429L48.0001 8.26429C46.5336 8.26429 35.5001 4.26435 30.7498 8.49058C29.8901 9.14085 29.4602 10.0478 29.4602 11.2114Z" fill="url(#paint0_linear_45_543)"/>
<defs>
<linearGradient id="paint0_linear_45_543" x1="24.5707" y1="38.6509" x2="46.5001" y2="-20.7356" gradientUnits="userSpaceOnUse">
<stop stop-color="#D4AF37"/>
<stop offset="1" stop-color="#FFC300" stop-opacity="0"/>
</linearGradient>
</defs>
</svg>
