<svg width="109" height="87" viewBox="0 0 109 87" fill="none" xmlns="http://www.w3.org/2000/svg">
<path d="M65.0573 24.8678C65.0573 27.8278 66.2702 36.2188 66.2702 36.2188C66.2702 36.2188 66.6984 38.9434 71.8863 40.7117C92.8223 43.381 103.412 44.6748 106.706 46.3278C117.423 51.6712 65.147 52.7117 65.147 62.053L65.147 84.5174L65.147 86.7639L47.1754 86.7639L47.1755 75.5317C40.8357 83.8413 35.9997 86.4337 24.7111 86.7639C5.6228 86.4371 1.59367 78.4204 0.000208547 57.5601L7.86275 57.5601L12.3556 57.5601L16.8485 57.5601C17.0757 66.7477 24.4819 70.9399 32.6614 70.9399C36.789 70.9399 39.9131 69.7867 42.0338 67.4802C44.1544 65.1737 45.2147 61.4256 45.2147 56.236C45.2147 56.236 45.4859 72.3858 45.2355 44.654C44.3964 37.8135 45.1198 30.0393 45.1198 24.9831C45.1198 17.6407 47.8463 11.8745 53.2993 7.68433C58.7523 3.49418 75.2559 -4.21707 107.829 3.64533L106.706 18.2472C103.412 18.2472 78.6256 9.26157 67.9543 18.7555C66.023 20.2163 65.0573 22.2537 65.0573 24.8678Z" fill="url(#paint0_linear_56_1005)"/>
<defs>
<linearGradient id="paint0_linear_56_1005" x1="54.0733" y1="86.5088" x2="103.336" y2="-46.8993" gradientUnits="userSpaceOnUse">
<stop stop-color="#D4AF37"/>
<stop offset="1" stop-color="#FFC300" stop-opacity="0"/>
</linearGradient>
</defs>
</svg>
