<svg width="109" height="87" viewBox="0 0 109 87" fill="none" xmlns="http://www.w3.org/2000/svg">
<path d="M65.0573 24.8682C65.0573 27.8282 66.2702 36.2192 66.2702 36.2192C66.2702 36.2192 66.6984 38.9438 71.8863 40.7121C92.8223 43.3814 103.412 44.6752 106.706 46.3282C117.423 51.6716 65.147 52.7121 65.147 62.0534L65.147 84.5178L65.147 86.7643L47.1754 86.7643L47.1755 75.5321C40.8357 83.8417 35.9997 86.4341 24.7111 86.7643C5.6228 86.4375 1.59367 78.4208 0.000208547 57.5605L7.86275 57.5605L12.3556 57.5605L16.8485 57.5605C17.0757 66.7481 24.4819 70.9403 32.6614 70.9404C36.789 70.9404 39.9131 69.7871 42.0338 67.4806C44.1544 65.1741 45.2147 61.426 45.2147 56.2364C45.2147 56.2364 45.4859 72.3863 45.2355 44.6544C44.3964 37.8139 45.1198 30.0398 45.1198 24.9835C45.1198 17.6411 47.8463 11.8749 53.2993 7.68474C58.7523 3.49459 75.2559 -4.21665 107.829 3.64574L106.706 18.2476C103.412 18.2476 78.6256 9.26198 67.9543 18.756C66.023 20.2167 65.0573 22.2541 65.0573 24.8682Z" fill="url(#paint0_linear_19_2067)"/>
<defs>
<linearGradient id="paint0_linear_19_2067" x1="54.0733" y1="86.5093" x2="103.336" y2="-46.8989" gradientUnits="userSpaceOnUse">
<stop stop-color="#D4AF37"/>
<stop offset="1" stop-color="#FFC300" stop-opacity="0"/>
</linearGradient>
</defs>
</svg>
