<svg width="49" height="39" viewBox="0 0 49 39" fill="none" xmlns="http://www.w3.org/2000/svg">
<path d="M29.46 11.2114C29.46 12.5291 29.9999 16.2643 29.9999 16.2643C29.9999 16.2643 30.1905 17.4772 32.4999 18.2643C41.8195 19.4526 46.5333 20.0285 47.9999 20.7643C52.7704 23.1429 29.4999 23.6061 29.4999 27.7644L29.4999 37.7644L29.4999 38.7644L21.4999 38.7644L21.4999 33.7644C18.6777 37.4634 16.525 38.6174 11.4999 38.7644C3.00276 38.6189 1.2092 35.0503 0.499871 25.7644L3.99987 25.7644L5.99987 25.7644L7.99988 25.7644C8.10102 29.8542 11.3979 31.7204 15.039 31.7204C16.8764 31.7204 18.2671 31.207 19.2111 30.1803C20.155 29.1536 20.627 27.4851 20.627 25.175C20.627 25.175 20.7478 32.3641 20.6363 20.0193C20.2628 16.9742 20.5848 13.5136 20.5848 11.2628C20.5848 7.99432 21.7985 5.42748 24.2259 3.56225C26.6533 1.69701 33.9999 -1.73565 48.4999 1.76429L47.9999 8.26429C46.5333 8.26429 35.4999 4.26435 30.7495 8.49058C29.8898 9.14085 29.46 10.0478 29.46 11.2114Z" fill="url(#paint0_linear_1_2989)"/>
<defs>
<linearGradient id="paint0_linear_1_2989" x1="24.5704" y1="38.6509" x2="46.4999" y2="-20.7356" gradientUnits="userSpaceOnUse">
<stop stop-color="#D4AF37"/>
<stop offset="1" stop-color="#FFC300" stop-opacity="0"/>
</linearGradient>
</defs>
</svg>
