<svg width="50" height="40" viewBox="0 0 50 40" fill="none" xmlns="http://www.w3.org/2000/svg">
<path d="M29.8877 11.4663C29.8877 12.784 30.4276 16.5192 30.4276 16.5192C30.4276 16.5192 30.6182 17.7321 32.9276 18.5192C42.2473 19.7074 46.9611 20.2834 48.4276 21.0192C53.1981 23.3978 29.9276 23.861 29.9276 28.0193L29.9276 38.0193L29.9276 39.0193L21.9276 39.0193L21.9276 34.0193C19.1055 37.7183 16.9527 38.8723 11.9276 39.0193C3.4305 38.8738 1.63694 35.3052 0.927606 26.0193L4.42761 26.0193L6.42761 26.0193L8.42761 26.0193C8.52875 30.1091 11.8256 31.9753 15.4667 31.9753C17.3041 31.9753 18.6948 31.4619 19.6388 30.4352C20.5828 29.4084 21.0548 27.74 21.0548 25.4298C21.0548 25.4298 21.1755 32.6189 21.064 20.2741C20.6905 17.2291 21.0125 13.7684 21.0125 11.5176C21.0125 8.24921 22.2262 5.68237 24.6536 3.81713C27.081 1.95189 34.4276 -1.48076 48.9276 2.01918L48.4276 8.51918C46.961 8.51918 35.9276 4.51924 31.1773 8.74546C30.3176 9.39573 29.8877 10.3027 29.8877 11.4663Z" fill="url(#paint0_linear_1_2460)"/>
<defs>
<linearGradient id="paint0_linear_1_2460" x1="24.9982" y1="38.9058" x2="46.9276" y2="-20.4807" gradientUnits="userSpaceOnUse">
<stop stop-color="#D4AF37"/>
<stop offset="1" stop-color="#FFC300" stop-opacity="0"/>
</linearGradient>
</defs>
</svg>
