<svg width="49" height="40" viewBox="0 0 49 40" fill="none" xmlns="http://www.w3.org/2000/svg">
<path d="M28.9602 11.7019C28.9602 13.0196 29.5001 16.7548 29.5001 16.7548C29.5001 16.7548 29.6907 17.9677 32.0001 18.7548C41.3198 19.943 46.0336 20.519 47.5001 21.2548C52.2706 23.6334 29.0001 24.0966 29.0001 28.2549L29.0001 38.2549L29.0001 39.2549L21.0001 39.2549L21.0001 34.2549C18.178 37.9539 16.0252 39.1079 11.0001 39.2549C2.50301 39.1094 0.709446 35.5408 0.000115577 26.2549L3.50012 26.2549L5.50012 26.2549L7.50012 26.2549C7.60126 30.3447 10.8981 32.2109 14.5392 32.2109C16.3766 32.2109 17.7673 31.6975 18.7113 30.6708C19.6553 29.644 20.1273 27.9756 20.1273 25.6654C20.1273 25.6654 20.248 32.8545 20.1366 20.5097C19.763 17.4647 20.085 14.004 20.085 11.7532C20.085 8.4848 21.2987 5.91796 23.7261 4.05272C26.1535 2.18749 33.5001 -1.24517 48.0001 2.25477L47.5001 8.75477C46.0336 8.75477 35.0001 4.75483 30.2498 8.98106C29.3901 9.63133 28.9602 10.5383 28.9602 11.7019Z" fill="url(#paint0_linear_45_719)"/>
<defs>
<linearGradient id="paint0_linear_45_719" x1="24.0707" y1="39.1414" x2="46.0001" y2="-20.2451" gradientUnits="userSpaceOnUse">
<stop stop-color="#D4AF37"/>
<stop offset="1" stop-color="#FFC300" stop-opacity="0"/>
</linearGradient>
</defs>
</svg>
