<svg width="49" height="40" viewBox="0 0 49 40" fill="none" xmlns="http://www.w3.org/2000/svg">
<path d="M28.96 11.7019C28.96 13.0196 29.4999 16.7548 29.4999 16.7548C29.4999 16.7548 29.6905 17.9677 31.9999 18.7548C41.3195 19.943 46.0333 20.519 47.4999 21.2548C52.2704 23.6334 28.9999 24.0966 28.9999 28.2549L28.9999 38.2549L28.9999 39.2549L20.9999 39.2549L20.9999 34.2549C18.1777 37.9539 16.025 39.1079 10.9999 39.2549C2.50276 39.1094 0.709202 35.5408 -0.000128563 26.2549L3.49987 26.2549L5.49987 26.2549L7.49988 26.2549C7.60102 30.3447 10.8979 32.2109 14.539 32.2109C16.3764 32.2109 17.7671 31.6975 18.7111 30.6708C19.655 29.644 20.127 27.9756 20.127 25.6654C20.127 25.6654 20.2478 32.8545 20.1363 20.5097C19.7628 17.4647 20.0848 14.004 20.0848 11.7532C20.0848 8.4848 21.2985 5.91796 23.7259 4.05272C26.1533 2.18749 33.4999 -1.24517 47.9999 2.25477L47.4999 8.75477C46.0333 8.75477 34.9999 4.75483 30.2495 8.98106C29.3898 9.63133 28.96 10.5383 28.96 11.7019Z" fill="url(#paint0_linear_19_2132)"/>
<defs>
<linearGradient id="paint0_linear_19_2132" x1="24.0704" y1="39.1414" x2="45.9999" y2="-20.2451" gradientUnits="userSpaceOnUse">
<stop stop-color="#D4AF37"/>
<stop offset="1" stop-color="#FFC300" stop-opacity="0"/>
</linearGradient>
</defs>
</svg>
