<svg width="49" height="39" viewBox="0 0 49 39" fill="none" xmlns="http://www.w3.org/2000/svg">
<path d="M29.46 11.2117C29.46 12.5293 29.9999 16.2646 29.9999 16.2646C29.9999 16.2646 30.1905 17.4774 32.4999 18.2646C41.8195 19.4528 46.5333 20.0288 47.9999 20.7646C52.7704 23.1432 29.4999 23.6064 29.4999 27.7646L29.4999 37.7646L29.4999 38.7646L21.4999 38.7646L21.4999 33.7646C18.6777 37.4636 16.525 38.6177 11.4999 38.7646C3.00276 38.6192 1.2092 35.0506 0.499871 25.7646L3.99987 25.7646L5.99987 25.7646L7.99988 25.7646C8.10102 29.8545 11.3979 31.7206 15.039 31.7206C16.8764 31.7206 18.2671 31.2073 19.2111 30.1805C20.155 29.1538 20.627 27.4854 20.627 25.1752C20.627 25.1752 20.7478 32.3643 20.6363 20.0195C20.2628 16.9744 20.5848 13.5138 20.5848 11.263C20.5848 7.99457 21.7985 5.42773 24.2259 3.56249C26.6533 1.69725 33.9999 -1.7354 48.4999 1.76454L47.9999 8.26454C46.5333 8.26454 35.4999 4.2646 30.7495 8.49083C29.8898 9.14109 29.46 10.048 29.46 11.2117Z" fill="url(#paint0_linear_19_1398)"/>
<defs>
<linearGradient id="paint0_linear_19_1398" x1="24.5704" y1="38.6511" x2="46.4999" y2="-20.7353" gradientUnits="userSpaceOnUse">
<stop stop-color="#D4AF37"/>
<stop offset="1" stop-color="#FFC300" stop-opacity="0"/>
</linearGradient>
</defs>
</svg>
