<svg width="33" height="31" viewBox="0 0 33 31" fill="none" xmlns="http://www.w3.org/2000/svg">
    <path d="M20.2188 1.83325H12.5312C7.09537 1.83325 4.37742 1.83325 2.68871 3.54877C1 5.26429 1 8.02537 1 13.5475V17.4523C1 22.9745 1 25.7356 2.68871 27.4511C4.37742 29.1666 7.09537 29.1666 12.5312 29.1666H20.2188C25.6546 29.1666 28.3726 29.1666 30.0613 27.4511C31.75 25.7356 31.75 22.9745 31.75 17.4523V13.5475C31.75 8.02537 31.75 5.26429 30.0613 3.54877C28.3726 1.83325 25.6546 1.83325 20.2188 1.83325Z"
          stroke="#DAB24A" stroke-width="2"/>
    <path d="M7.83301 8.66675H12.958" stroke="#DAB24A" stroke-width="2" stroke-linecap="round"/>
    <path d="M21.5 20.3333V17.4999C21.5 16.5571 21.5 16.0857 21.7929 15.7928C22.0858 15.4999 22.5572 15.4999 23.5 15.4999H29.75C30.6928 15.4999 31.1642 15.4999 31.4571 15.7928C31.75 16.0857 31.75 16.5571 31.75 17.4999V20.3333C31.75 21.2761 31.75 21.7475 31.4571 22.0404C31.1642 22.3333 30.6928 22.3333 29.75 22.3333H23.5C22.5572 22.3333 22.0858 22.3333 21.7929 22.0404C21.5 21.7475 21.5 21.2761 21.5 20.3333Z"
          stroke="#DAB24A" stroke-width="2"/>
</svg>
